<?xml version="1.0" standalone="no"?>
<!DOCTYPE svg PUBLIC "-//W3C//DTD SVG 20010904//EN"
 "http://www.w3.org/TR/2001/REC-SVG-20010904/DTD/svg10.dtd">
<svg version="1.0" xmlns="http://www.w3.org/2000/svg"
 width="16.000000pt" height="16.000000pt" viewBox="0 0 16.000000 16.000000"
 preserveAspectRatio="xMidYMid meet">

<g transform="translate(0.000000,16.000000) scale(0.100000,-0.100000)"
fill="#000000" stroke="none">
<path d="M0 80 l0 -80 80 0 c47 0 80 4 80 10 0 6 -8 10 -18 10 -15 0 -17 7
-14 41 5 50 -11 46 -28 -6 -6 -19 -15 -35 -20 -35 -4 0 -15 18 -24 40 -9 22
-19 40 -22 40 -3 0 -4 -18 -2 -40 2 -23 -1 -40 -7 -40 -6 0 -10 26 -10 60 0
75 21 81 49 14 l19 -46 20 46 c13 31 26 46 38 46 11 0 19 5 19 10 0 6 -33 10
-80 10 l-80 0 0 -80z"/>
<path d="M148 93 c6 -65 10 -70 11 -15 0 28 -3 52 -7 52 -4 0 -6 -17 -4 -37z"/>
</g>
</svg>
