<?xml version="1.0" encoding="utf-8"?>
<!-- Generator: Adobe Illustrator 18.0.0, SVG Export Plug-In . SVG Version: 6.00 Build 0)  -->
<!DOCTYPE svg PUBLIC "-//W3C//DTD SVG 1.1//EN" "http://www.w3.org/Graphics/SVG/1.1/DTD/svg11.dtd">
<svg version="1.1" id="Layer_1" xmlns="http://www.w3.org/2000/svg" xmlns:xlink="http://www.w3.org/1999/xlink" x="0px" y="0px"
	 viewBox="0 0 325.7 137.7" enable-background="new 0 0 325.7 137.7" xml:space="preserve">
<rect x="0.1" y="0" fill="#6B2C90" width="325.5" height="101.1"/>
<path fill="#FFD300" d="M215.9,34.4c0-2.3,2-3.7,5-3.7c3.1,0,5.9,2,7.2,4.9h0.7l-0.6-4.4c-1.5-0.7-4.8-1.7-7.7-1.7
	c-4.5,0-7.8,2.9-7.8,6.3c0,7.1,14.2,8.7,14.2,14.6c0,3.2-3.2,4.6-6.1,4.6c-3.5,0-6.7-2.1-7.6-6.1h-0.8l0.9,6.1
	c2.3,0.6,5.4,1.4,7.9,1.4c5.2,0,9-3.4,9-7.3C230,41.5,215.9,40.2,215.9,34.4 M230.7,30h20.9l0.6,5.6h-0.7c-0.6-3.6-1.4-4-3-4h-5.6
	v20.2c0,2.2,0.7,3,3.2,3h0.9v0.8h-11.7v-0.8h0.9c2.5,0,3.2-0.8,3.2-3V31.6h-5.6c-1.6,0-2.3,0.4-2.9,4h-0.7L230.7,30z M209,31
	c-0.6-4.1-1.9-4.4-3.6-4.4h-11v12h8.6c1.8,0,2.6-0.2,2.9-3.1h0.9v8.3h-0.9c-0.4-3.5-1.3-3.3-3.4-3.3h-8.1v10.5c0,2.3,1,2.7,2.9,2.7
	h7.4c3.4,0,4.5-0.7,5.7-4.9h0.9l-0.8,6.7h-24.4v-0.9c3.9-0.1,4.2-0.6,4.2-3.6l0-21.5c0-3-0.3-3.6-4.2-3.6v-0.9l23.4,0l0.4,6.1H209z
	 M233,80.5h-0.7c-0.5,2.4-1.2,3-3.2,3h-9.2c4.9-4.3,12.4-9.9,12.4-15.8c0-3.9-3-6.9-7.1-6.9c-4.2,0-7.4,3-7.9,7.5h0.6
	c0.9-3.2,3.4-5.3,6.1-5.3c2.9,0,5.1,2.3,5.1,5.2c0,7-11.4,15.6-12.4,16.6v1.1h15.5l0,0v0h0l0.3-2.4h0L233,80.5z M186.4,85.9V85
	c3.7,0,3.9-0.6,3.9-2.6h0V64.2c-1.3,1.1-3.6,2.5-5.1,3.2l-0.3-0.6c2.4-1.5,5.8-4.5,6.8-5.8h1.4v20.8c0,2.5,0.5,3,4.2,3.1v0.9H186.4z
	 M233.4,78.9V78l12.4-16.9h1.2v15.9h3.2v2h-3.2v7h-2.8v-7H233.4 M244.2,64.9l-8.8,12.1h8.8V64.9z M208.9,72.3
	c4.5,1.8,6.5,3.8,6.5,6.9c0,4.1-3.7,7.2-8.4,7.2c-4.6,0-8.3-2.9-8.3-6.4c0-2.7,2.1-5,6.3-6.5c-4-1.6-6-3.6-6-6.2
	c0-3.4,3.6-6.3,7.8-6.3s7.7,2.5,7.7,5.6C214.6,69,212.7,70.9,208.9,72.3 M205.8,73.8c-2.9,1.4-4.7,3.5-4.7,6c0,3.3,2.6,5.5,5.9,5.5
	c3.2,0,5.9-2.1,5.9-5.1C212.9,77.6,210.8,75.8,205.8,73.8 M206.8,61.8c-3,0-5.5,1.7-5.5,4.1c0,2.2,1.2,3.6,6.8,5.8
	c2.4-1.4,4.1-3.1,4.1-5.3C212.2,63.6,209.8,61.8,206.8,61.8z"/>
<path fill="#FFFFFF" d="M274.4,31l-0.4-6.1l-23.4,0v0.9c3.9,0.1,4.2,0.6,4.2,3.6l0,21.5c0,3-0.3,3.5-4.2,3.6v0.9h24.4l0.8-6.7h-0.9
	c-1.2,4.2-2.3,4.9-5.7,4.9h-7.4c-1.8,0-2.9-0.4-2.9-2.7V40.6h8.1c2,0,3-0.2,3.4,3.3h0.9v-8.3h-0.9c-0.2,2.9-1.1,3.1-2.9,3.1h-8.6
	v-12h11c1.7,0,3,0.3,3.6,4.4H274.4 M110.7,24.9v0.9c3.9,0.1,4.2,0.6,4.2,3.6v19.6L94.3,24.9h-7.4v0.9c1.7,0,2.6,0.4,3.8,1.2v24.2
	c0,1.9-0.7,3.2-2.4,3.2c-1.3,0-1.9-1.5-2.6-3L74.2,24.9h-3.5L60.1,49.7c-1.9,4.1-2.2,4.8-3.3,4.8c-1.3,0-1.7-1.1-1.9-4.4l-1.5-21.7
	c0-1.9,0.6-2.6,4.3-2.6v-0.9h-8.3L38.6,49.8L27.7,24.9H19v0.9c3.7,0,4.3,0.6,4.3,2.6L22,49.4c-0.2,4.5-0.7,5.3-4.3,5.3v0.9H28v-0.9
	c-2.2-0.1-4.1-0.6-3.9-3.2l1.3-22.2h0.1L37,55.6h1.1l11.2-26.3h0.1l1.4,22.1c0.2,2.6-2.1,3.3-4.4,3.3v0.9h19v-0.9h-0.2
	c-2.7,0-4-0.5-4-1.8c0-0.7,0.6-2.2,1-3.1l2.7-6.5H78l3.2,7.7c0.2,0.5,0.5,1.2,0.5,2c0,1.4-1,1.7-3.8,1.7h-0.7v0.9h20.1v-0.9
	c-4.2,0-4.4-0.7-4.4-4.3V29.2l22.9,26.7h1.3V28.4c0-1.9,0.2-2.6,3.9-2.6v-0.9H110.7z M65.9,41.3l5.6-13.4l5.6,13.4H65.9z
	 M185.4,54.6v0.9h-12.2v-0.9c3.7-0.1,4.2-0.6,4.2-3.2V40.6h-18.1V51l0,0c0,3,0.3,3.5,4.2,3.6v0.9h-12.2v-0.9c3.7,0,3.9-0.6,3.9-2.6
	h0V28.4l0,0c0-1.9-0.2-2.6-3.9-2.6v-0.9h12.2v0.9c-3.9,0.1-4.2,0.6-4.2,3.6h0l0,9.2h18.1l0-9.6c0-2.6-0.5-3.1-4.2-3.2v-0.9h12.2v0.9
	c-3.7,0-3.9,0.6-3.9,2.6l0,0v23.6l0,0C181.5,54,181.7,54.6,185.4,54.6z M137.7,24.2c5.2,0,9,1.7,11.3,2.7l0.4,6.1h-0.9
	c-1.6-4.6-5-7.6-10.4-7.6c-8.2,0-12.3,6.4-12.3,14.6c0,8.9,5.4,14.9,12.9,14.9c2.2,0,7.9-1.5,11.2-7.5h0.9l-2.4,5.8
	c-2.9,1.4-5.3,3-11.1,3c-10,0-16-6.6-16-15.7C121.3,31.1,127.4,24.2,137.7,24.2z M304.8,49.8l-3.9-3.7c-2.3-2.3-3.8-3.4-5.6-4.8
	c4.1-1.2,6.6-4.3,6.6-8c0-5.1-4.1-8.8-13.3-8.8c-3.2,0-4.2,0-6.2,0.2c-2,0.1-5.1,0.3-6.2,0.3v0.9h1.1c2.9,0,3.7,0.9,3.7,4v20.7
	c0,3.3-1,4.1-4,4.1h-0.8v0.9h14v-0.9h-1.1c-2.8,0-4-0.7-4-3.7v-8.2c0.8,0.1,1.4,0.1,2.5,0.1c1.3,0,2.1,0,3.3-0.1
	c3.8,2.2,6.7,5.5,8.5,7.1c4.5,4.3,5.6,6.1,14.2,5.7v-0.9C309.7,54.4,307.7,52.8,304.8,49.8z M288,41.6c-1.1,0-1.9,0-3.1-0.1V25.7
	c0.9-0.1,1.5-0.1,2.5-0.1c7.6,0,9.7,3.4,9.7,8C297.2,39.5,293.5,41.6,288,41.6z M304.8,49.8l-3.9-3.7c-2.3-2.3-3.8-3.4-5.6-4.8
	c4.1-1.2,6.6-4.3,6.6-8c0-5.1-4.1-8.8-13.3-8.8c-3.2,0-4.2,0-6.2,0.2c-2,0.1-5.1,0.3-6.2,0.3v0.9h1.1c2.9,0,3.7,0.9,3.7,4v20.7
	c0,3.3-1,4.1-4,4.1h-0.8v0.9h14v-0.9h-1.1c-2.8,0-4-0.7-4-3.7v-8.2c0.8,0.1,1.4,0.1,2.5,0.1c1.3,0,2.1,0,3.3-0.1
	c3.8,2.2,6.7,5.5,8.5,7.1c4.5,4.3,5.6,6.1,14.2,5.7v-0.9C309.7,54.4,307.7,52.8,304.8,49.8z M288,41.6c-1.1,0-1.9,0-3.1-0.1V25.7
	c0.9-0.1,1.5-0.1,2.5-0.1c7.6,0,9.7,3.4,9.7,8C297.2,39.5,293.5,41.6,288,41.6z"/>
<polyline fill="#737373" points="7.5,114.3 7.5,130.8 5.5,130.8 5.5,114.3 0,114.3 0,112.5 13,112.5 13,114.3 7.5,114.3 "/>
<path fill="#737373" d="M24.1,130.8v-8.7c0-2.1-0.6-3.3-2.5-3.3c-2.4,0-4.1,2.4-4.1,5.6v6.5h-2v-19.7h2v6.6c0,0.9-0.1,2-0.2,2.7
	l0.1,0c0.8-2,2.5-3.2,4.8-3.2c3.1,0,4,1.9,4,4.3v9.4H24.1"/>
<path fill="#737373" d="M35,118.7c-1.9,0-3.2,1.4-3.6,3.5h6.8C38.3,120.1,37.1,118.7,35,118.7 M40.3,123.7h-9
	c-0.1,4,1.5,5.7,4.5,5.7c1.4,0,2.9-0.4,3.9-0.9l0.2,1.7c-1.2,0.5-2.8,0.8-4.4,0.8c-4.1,0-6.2-2.2-6.2-6.9c0-4,2.2-7,5.9-7
	c3.7,0,5.2,2.6,5.2,5.5C40.4,122.9,40.4,123.3,40.3,123.7z"/>
<path fill="#737373" d="M55.7,131c-5.7,0-6.7-3.2-6.7-6.3v-12.2h2.1v12c0,2.6,0.9,4.8,4.8,4.8c3.4,0,5-1.4,5-5.3v-11.5h2v11.3
	C62.9,128.6,60.5,131,55.7,131"/>
<path fill="#737373" d="M75.5,130.8v-8.7c0-2.1-0.6-3.3-2.5-3.3c-2.4,0-4.1,2.4-4.1,5.6v6.5h-2v-13.4h2c0,0.9-0.1,2.2-0.2,3l0.1,0
	c0.8-1.9,2.5-3.3,4.8-3.3c3.1,0,4,1.9,4,4.3v9.4H75.5"/>
<path fill="#737373" d="M81.4,130.8v-13.4h2v13.4H81.4 M82.4,114.9c-0.8,0-1.4-0.6-1.4-1.4c0-0.8,0.6-1.4,1.4-1.4
	c0.8,0,1.4,0.6,1.4,1.4C83.9,114.3,83.2,114.9,82.4,114.9z"/>
<path fill="#737373" d="M92.8,130.8h-2.1l-5.1-13.4h2.3l3.1,8.8c0.3,0.8,0.5,1.6,0.8,2.4h0c0.2-0.7,0.5-1.5,0.7-2.3l3.2-8.9H98
	L92.8,130.8"/>
<path fill="#737373" d="M104.3,118.7c-1.9,0-3.2,1.4-3.6,3.5h6.8C107.6,120.1,106.4,118.7,104.3,118.7 M109.6,123.7h-9
	c-0.1,4,1.5,5.7,4.5,5.7c1.4,0,2.9-0.4,3.9-0.9l0.2,1.7c-1.2,0.5-2.8,0.8-4.4,0.8c-4.1,0-6.2-2.2-6.2-6.9c0-4,2.2-7,5.9-7
	c3.7,0,5.2,2.6,5.2,5.5C109.7,122.9,109.7,123.3,109.6,123.7z"/>
<path fill="#737373" d="M119.3,119.1c-3-0.5-4.4,1.8-4.4,6.3v5.4h-2v-13.4h2c0,0.9-0.1,2.2-0.3,3.4l0,0c0.5-2,1.9-4,4.8-3.7
	L119.3,119.1"/>
<path fill="#737373" d="M124,131c-1,0-2-0.1-2.8-0.3l0.1-1.9c0.9,0.2,1.9,0.4,3,0.4c1.9,0,3.3-0.9,3.3-2.3c0-3.2-6.5-1.2-6.5-6
	c0-2.2,1.8-3.9,5.2-3.9c0.8,0,1.8,0.1,2.6,0.3l-0.1,1.8c-0.9-0.3-1.9-0.5-2.8-0.5c-2,0-2.9,0.8-2.9,2.1c0,3.2,6.6,1.4,6.6,6
	C129.6,129.2,127.5,131,124,131"/>
<path fill="#737373" d="M132.7,130.8v-13.4h2v13.4H132.7 M133.8,114.9c-0.8,0-1.4-0.6-1.4-1.4c0-0.8,0.6-1.4,1.4-1.4
	c0.8,0,1.4,0.6,1.4,1.4C135.2,114.3,134.5,114.9,133.8,114.9z"/>
<path fill="#737373" d="M143.1,131c-2.7,0-3.5-1.2-3.5-4V119h-2.9v-1.6h2.9v-4.5l2-0.6v5h3.9v1.6h-3.9v7.2c0,2.4,0.4,3,2,3
	c0.7,0,1.4-0.1,1.9-0.2v1.8C144.9,130.9,144,131,143.1,131"/>
<path fill="#737373" d="M153,132.2c-1.6,4.1-2.8,5.5-5.7,5.5c-0.5,0-1.2-0.1-1.7-0.1l0.2-1.9c0.5,0.2,1.1,0.3,1.7,0.3
	c1.6,0,2.4-0.8,3.5-3.6l0.6-1.6l-5.1-13.4h2.3l2.8,7.7c0.4,1.2,0.7,2.2,1,3.2h0c0.2-0.9,0.8-2.5,1.4-4.1l2.4-6.8h2.2L153,132.2"/>
<path fill="#737373" d="M171.1,118.8c-2.1,0-4.1,1.6-4.1,5.2c0,3.4,1.5,5.3,4.1,5.3c2.1,0,4-1.6,4-5.3
	C175.1,120.7,173.7,118.8,171.1,118.8 M170.8,131c-3.6,0-5.9-2.2-5.9-6.9c0-3.8,2.4-7,6.4-7c3.3,0,6,1.8,6,6.7
	C177.2,127.9,174.7,131,170.8,131z"/>
<path fill="#737373" d="M188.1,112.9c-0.7-0.2-1.4-0.3-2.1-0.3c-2.1,0-3,1.2-3,3.8v1h4v1.6h-4v11.8h-2V119h-2.9v-1.6h2.9v-0.9
	c0-3.8,1.9-5.5,5.1-5.5c0.8,0,1.5,0.1,2.2,0.2L188.1,112.9"/>
<path fill="#737373" d="M212.5,130.8l-1.6-11.3c-0.3-2.2-0.5-3.6-0.6-4.6h-0.1c-0.2,0.8-0.5,1.8-0.9,3.1l-4.3,12.8h-2.4l-4.1-12
	c-0.5-1.3-0.9-2.8-1.2-3.9h0c-0.1,1.5-0.3,2.9-0.5,4.8l-1.3,11h-2.1l2.6-18.3h2.6l4.2,12.3c0.5,1.3,0.8,2.5,1,3.5h0.1
	c0.3-1.2,0.5-2.1,1-3.4l4.3-12.5h2.7l2.7,18.3H212.5"/>
<path fill="#737373" d="M225.2,124.5c-5.1,0-6.1,1.6-6.1,2.9c0,1.2,0.9,2,2.2,2c2.4,0,3.9-2.4,3.9-4.7V124.5 M225.3,130.8
	c0-1,0-2.1,0.1-2.8h-0.1c-0.6,1.7-2.4,3.1-4.7,3.1c-2.1,0-3.7-1.1-3.7-3.3c0-2.8,2.9-4.8,8.2-4.8v-1.1c0-2-0.7-3.2-3.1-3.2
	c-1.3,0-2.9,0.4-4.1,1.2l-0.2-1.8c1.3-0.6,2.8-1,4.7-1c3.7,0,4.8,1.8,4.8,4.4v5.3c0,1.3,0,2.8,0.1,4H225.3z"/>
<path fill="#737373" d="M239.8,130.8v-8.7c0-2.1-0.6-3.3-2.5-3.3c-2.4,0-4.1,2.4-4.1,5.6v6.5h-2v-13.4h2c0,0.9-0.1,2.2-0.2,3l0.1,0
	c0.8-1.9,2.5-3.3,4.8-3.3c3.1,0,4,1.9,4,4.3v9.4H239.8"/>
<path fill="#737373" d="M250.7,131c-3,0-5.8-1.3-5.8-6.4c0-4.4,2.2-7.4,6.6-7.4c1.1,0,2.2,0.2,3.2,0.5l-0.2,1.8
	c-0.9-0.4-1.9-0.6-3.1-0.6c-2.9,0-4.3,2.1-4.3,5.4c0,2.8,0.9,5,4.1,5c1.2,0,2.5-0.3,3.4-0.8l0.2,1.8
	C253.8,130.6,252.4,131,250.7,131"/>
<path fill="#737373" d="M266.2,130.8v-8.7c0-2.1-0.6-3.3-2.5-3.3c-2.4,0-4.1,2.4-4.1,5.6v6.5h-2v-19.7h2v6.6c0,0.9-0.1,2-0.2,2.7
	l0.1,0c0.8-2,2.5-3.2,4.8-3.2c3.1,0,4,1.9,4,4.3v9.4H266.2"/>
<path fill="#737373" d="M277.1,118.7c-1.9,0-3.2,1.4-3.6,3.5h6.8C280.4,120.1,279.2,118.7,277.1,118.7 M282.4,123.7h-9
	c-0.1,4,1.5,5.7,4.5,5.7c1.4,0,2.9-0.4,3.9-0.9l0.2,1.7c-1.2,0.5-2.8,0.8-4.4,0.8c-4.1,0-6.2-2.2-6.2-6.9c0-4,2.2-7,5.9-7
	c3.7,0,5.2,2.6,5.2,5.5C282.5,122.9,282.5,123.3,282.4,123.7z"/>
<path fill="#737373" d="M287.8,131c-1,0-2-0.1-2.8-0.3l0.1-1.9c0.9,0.2,1.9,0.4,3,0.4c1.9,0,3.3-0.9,3.3-2.3c0-3.2-6.5-1.2-6.5-6
	c0-2.2,1.8-3.9,5.2-3.9c0.8,0,1.8,0.1,2.6,0.3l-0.1,1.8c-0.9-0.3-1.9-0.5-2.8-0.5c-2,0-2.9,0.8-2.9,2.1c0,3.2,6.6,1.4,6.6,6
	C293.4,129.2,291.3,131,287.8,131"/>
<path fill="#737373" d="M300.8,131c-2.7,0-3.5-1.2-3.5-4V119h-2.9v-1.6h2.9v-4.5l2-0.6v5h3.9v1.6h-3.9v7.2c0,2.4,0.4,3,2,3
	c0.7,0,1.4-0.1,1.9-0.2v1.8C302.6,130.9,301.6,131,300.8,131"/>
<path fill="#737373" d="M310.8,118.7c-1.9,0-3.2,1.4-3.6,3.5h6.8C314.1,120.1,312.8,118.7,310.8,118.7 M316.1,123.7h-9
	c-0.1,4,1.5,5.7,4.5,5.7c1.4,0,2.9-0.4,3.9-0.9l0.2,1.7c-1.2,0.5-2.8,0.8-4.4,0.8c-4.1,0-6.2-2.2-6.2-6.9c0-4,2.2-7,5.9-7
	c3.7,0,5.2,2.6,5.2,5.5C316.1,122.9,316.1,123.3,316.1,123.7z"/>
<path fill="#737373" d="M325.6,119.1c-3-0.5-4.4,1.8-4.4,6.3v5.4h-2v-13.4h2c0,0.9-0.1,2.2-0.3,3.4l0,0c0.5-2,1.9-4,4.8-3.7
	L325.6,119.1"/>
</svg>
